<mxfile host="Electron" modified="2023-11-21T16:32:54.654Z" agent="Mozilla/5.0 (Windows NT 10.0; Win64; x64) AppleWebKit/537.36 (KHTML, like Gecko) draw.io/22.1.2 Chrome/114.0.5735.289 Electron/25.9.4 Safari/537.36" etag="VXNC2_lk_WxMWfOE9yCX" version="22.1.2" type="device">
  <diagram name="Page-1" id="hALMTIcFY9GxcDyH0sct">
    <mxGraphModel dx="2899" dy="2363" grid="1" gridSize="10" guides="1" tooltips="1" connect="1" arrows="1" fold="1" page="1" pageScale="1" pageWidth="850" pageHeight="1100" math="0" shadow="0">
      <root>
        <mxCell id="0" />
        <mxCell id="1" parent="0" />
        <mxCell id="NcBcRuEScLwqPQ7_SlR7-1" value="&lt;font style=&quot;font-size: 20px;&quot;&gt;IDLE&lt;/font&gt;" style="ellipse;whiteSpace=wrap;html=1;fontStyle=1" vertex="1" parent="1">
          <mxGeometry x="350" y="20" width="240" height="180" as="geometry" />
        </mxCell>
        <mxCell id="NcBcRuEScLwqPQ7_SlR7-2" value="&lt;font style=&quot;font-size: 20px;&quot;&gt;Preset&lt;/font&gt;" style="ellipse;whiteSpace=wrap;html=1;fontStyle=1" vertex="1" parent="1">
          <mxGeometry x="-410" y="260" width="250" height="180" as="geometry" />
        </mxCell>
        <mxCell id="NcBcRuEScLwqPQ7_SlR7-3" value="&lt;font style=&quot;font-size: 20px;&quot;&gt;SEND DATA&lt;br&gt;&lt;/font&gt;" style="ellipse;whiteSpace=wrap;html=1;fontStyle=1" vertex="1" parent="1">
          <mxGeometry x="-260" y="800" width="270" height="180" as="geometry" />
        </mxCell>
        <mxCell id="NcBcRuEScLwqPQ7_SlR7-4" value="&lt;font style=&quot;font-size: 20px;&quot;&gt;SET CMD RD&lt;/font&gt;" style="ellipse;whiteSpace=wrap;html=1;fontStyle=1" vertex="1" parent="1">
          <mxGeometry x="185" y="500" width="240" height="190" as="geometry" />
        </mxCell>
        <mxCell id="NcBcRuEScLwqPQ7_SlR7-5" value="" style="endArrow=classic;html=1;exitX=0;exitY=0.5;exitDx=0;exitDy=0;curved=1;strokeWidth=4;entryX=0.5;entryY=0;entryDx=0;entryDy=0;fontStyle=1" edge="1" parent="1" source="NcBcRuEScLwqPQ7_SlR7-1" target="NcBcRuEScLwqPQ7_SlR7-2">
          <mxGeometry width="50" height="50" relative="1" as="geometry">
            <mxPoint x="296.3603896932109" y="123.89087296526009" as="sourcePoint" />
            <mxPoint x="-50" y="240" as="targetPoint" />
            <Array as="points">
              <mxPoint x="-80" y="110" />
            </Array>
          </mxGeometry>
        </mxCell>
        <mxCell id="NcBcRuEScLwqPQ7_SlR7-6" value="" style="endArrow=classic;html=1;exitX=0;exitY=1;exitDx=0;exitDy=0;entryX=0;entryY=0;entryDx=0;entryDy=0;curved=1;strokeWidth=4;fontStyle=1" edge="1" parent="1" source="NcBcRuEScLwqPQ7_SlR7-2" target="NcBcRuEScLwqPQ7_SlR7-3">
          <mxGeometry width="50" height="50" relative="1" as="geometry">
            <mxPoint x="-215" y="710" as="sourcePoint" />
            <mxPoint x="-130" y="836" as="targetPoint" />
            <Array as="points">
              <mxPoint x="-470" y="620" />
            </Array>
          </mxGeometry>
        </mxCell>
        <mxCell id="NcBcRuEScLwqPQ7_SlR7-8" value="&lt;font style=&quot;font-size: 26px;&quot;&gt;ram_cen = 0&lt;br&gt;calib_complete = 1&lt;br&gt;&lt;/font&gt;" style="text;html=1;strokeColor=none;fillColor=none;align=center;verticalAlign=middle;whiteSpace=wrap;rounded=0;fontStyle=1" vertex="1" parent="1">
          <mxGeometry x="-90" y="20" width="270" height="80" as="geometry" />
        </mxCell>
        <mxCell id="NcBcRuEScLwqPQ7_SlR7-9" value="&lt;span style=&quot;font-size: 20px;&quot;&gt;WAIT CEN&lt;/span&gt;" style="ellipse;whiteSpace=wrap;html=1;fontStyle=1" vertex="1" parent="1">
          <mxGeometry x="990" y="510" width="240" height="190" as="geometry" />
        </mxCell>
        <mxCell id="NcBcRuEScLwqPQ7_SlR7-10" value="&lt;font style=&quot;font-size: 20px;&quot;&gt;SET CMD WR&lt;/font&gt;" style="ellipse;whiteSpace=wrap;html=1;fontStyle=1" vertex="1" parent="1">
          <mxGeometry x="750" y="850" width="240" height="190" as="geometry" />
        </mxCell>
        <mxCell id="NcBcRuEScLwqPQ7_SlR7-12" value="" style="endArrow=classic;html=1;exitX=1;exitY=0.5;exitDx=0;exitDy=0;curved=1;strokeWidth=4;entryX=0;entryY=0.5;entryDx=0;entryDy=0;fontStyle=1" edge="1" parent="1" source="NcBcRuEScLwqPQ7_SlR7-4" target="NcBcRuEScLwqPQ7_SlR7-9">
          <mxGeometry width="50" height="50" relative="1" as="geometry">
            <mxPoint x="805" y="800" as="sourcePoint" />
            <mxPoint x="350" y="930" as="targetPoint" />
            <Array as="points">
              <mxPoint x="580" y="710" />
            </Array>
          </mxGeometry>
        </mxCell>
        <mxCell id="NcBcRuEScLwqPQ7_SlR7-13" value="" style="endArrow=classic;html=1;exitX=1;exitY=0.5;exitDx=0;exitDy=0;curved=1;strokeWidth=4;entryX=0.5;entryY=1;entryDx=0;entryDy=0;fontStyle=1" edge="1" parent="1" source="NcBcRuEScLwqPQ7_SlR7-10" target="NcBcRuEScLwqPQ7_SlR7-9">
          <mxGeometry width="50" height="50" relative="1" as="geometry">
            <mxPoint x="860" y="820" as="sourcePoint" />
            <mxPoint x="1330" y="750" as="targetPoint" />
            <Array as="points">
              <mxPoint x="1120" y="830" />
            </Array>
          </mxGeometry>
        </mxCell>
        <mxCell id="NcBcRuEScLwqPQ7_SlR7-14" value="" style="endArrow=classic;html=1;exitX=0.5;exitY=0;exitDx=0;exitDy=0;curved=1;strokeWidth=4;entryX=1;entryY=0.5;entryDx=0;entryDy=0;fontStyle=1" edge="1" parent="1" source="NcBcRuEScLwqPQ7_SlR7-9" target="NcBcRuEScLwqPQ7_SlR7-1">
          <mxGeometry width="50" height="50" relative="1" as="geometry">
            <mxPoint x="910" y="560" as="sourcePoint" />
            <mxPoint x="1085.1724066165953" y="251.9211766273247" as="targetPoint" />
            <Array as="points">
              <mxPoint x="1070" y="400" />
            </Array>
          </mxGeometry>
        </mxCell>
        <mxCell id="NcBcRuEScLwqPQ7_SlR7-19" value="&lt;font style=&quot;font-size: 26px;&quot;&gt;mem_ui_rst = 0&lt;/font&gt;" style="text;html=1;strokeColor=none;fillColor=none;align=center;verticalAlign=middle;whiteSpace=wrap;rounded=0;fontStyle=1" vertex="1" parent="1">
          <mxGeometry x="620" y="-90" width="230" height="80" as="geometry" />
        </mxCell>
        <mxCell id="NcBcRuEScLwqPQ7_SlR7-22" value="&lt;font style=&quot;font-size: 23px;&quot;&gt;ram_cen = 1&lt;/font&gt;" style="text;html=1;strokeColor=none;fillColor=none;align=center;verticalAlign=middle;whiteSpace=wrap;rounded=0;fontStyle=1" vertex="1" parent="1">
          <mxGeometry x="830" y="200" width="230" height="80" as="geometry" />
        </mxCell>
        <mxCell id="NcBcRuEScLwqPQ7_SlR7-28" value="&lt;font style=&quot;font-size: 26px;&quot;&gt;ram_wen = 0&lt;br&gt;&lt;/font&gt;" style="text;html=1;strokeColor=none;fillColor=none;align=center;verticalAlign=middle;whiteSpace=wrap;rounded=0;fontStyle=1" vertex="1" parent="1">
          <mxGeometry x="-620" y="630" width="270" height="80" as="geometry" />
        </mxCell>
        <mxCell id="NcBcRuEScLwqPQ7_SlR7-29" value="" style="endArrow=classic;html=1;exitX=1;exitY=1;exitDx=0;exitDy=0;entryX=0;entryY=0;entryDx=0;entryDy=0;curved=1;strokeWidth=4;fontStyle=1" edge="1" parent="1" source="NcBcRuEScLwqPQ7_SlR7-2" target="NcBcRuEScLwqPQ7_SlR7-4">
          <mxGeometry width="50" height="50" relative="1" as="geometry">
            <mxPoint x="-119" y="480" as="sourcePoint" />
            <mxPoint x="-436" y="822" as="targetPoint" />
            <Array as="points">
              <mxPoint x="-210" y="580" />
            </Array>
          </mxGeometry>
        </mxCell>
        <mxCell id="NcBcRuEScLwqPQ7_SlR7-31" value="&lt;font style=&quot;font-size: 26px;&quot;&gt;ram_oen = 0&lt;br&gt;&lt;/font&gt;" style="text;html=1;strokeColor=none;fillColor=none;align=center;verticalAlign=middle;whiteSpace=wrap;rounded=0;fontStyle=1" vertex="1" parent="1">
          <mxGeometry x="-170" y="430" width="270" height="80" as="geometry" />
        </mxCell>
        <mxCell id="NcBcRuEScLwqPQ7_SlR7-32" value="" style="endArrow=classic;html=1;exitX=1;exitY=1;exitDx=0;exitDy=0;entryX=0;entryY=1;entryDx=0;entryDy=0;curved=1;strokeWidth=4;fontStyle=1" edge="1" parent="1" source="NcBcRuEScLwqPQ7_SlR7-3" target="NcBcRuEScLwqPQ7_SlR7-10">
          <mxGeometry width="50" height="50" relative="1" as="geometry">
            <mxPoint x="257" y="820" as="sourcePoint" />
            <mxPoint x="410" y="1232" as="targetPoint" />
            <Array as="points">
              <mxPoint x="160" y="1026" />
            </Array>
          </mxGeometry>
        </mxCell>
        <mxCell id="NcBcRuEScLwqPQ7_SlR7-34" value="&lt;font style=&quot;font-size: 26px;&quot;&gt;mem_wdf_rdy = 1&lt;br&gt;&lt;/font&gt;" style="text;html=1;strokeColor=none;fillColor=none;align=center;verticalAlign=middle;whiteSpace=wrap;rounded=0;fontStyle=1" vertex="1" parent="1">
          <mxGeometry x="220" y="920" width="270" height="80" as="geometry" />
        </mxCell>
        <mxCell id="NcBcRuEScLwqPQ7_SlR7-35" value="&lt;font style=&quot;font-size: 26px;&quot;&gt;mem_rdy=1&lt;br&gt;&lt;/font&gt;" style="text;html=1;strokeColor=none;fillColor=none;align=center;verticalAlign=middle;whiteSpace=wrap;rounded=0;fontStyle=1" vertex="1" parent="1">
          <mxGeometry x="520" y="565" width="270" height="80" as="geometry" />
        </mxCell>
        <mxCell id="NcBcRuEScLwqPQ7_SlR7-36" value="&lt;font style=&quot;font-size: 26px;&quot;&gt;mem_rdy=1&lt;br&gt;&lt;/font&gt;" style="text;html=1;strokeColor=none;fillColor=none;align=center;verticalAlign=middle;whiteSpace=wrap;rounded=0;fontStyle=1" vertex="1" parent="1">
          <mxGeometry x="850" y="760" width="270" height="80" as="geometry" />
        </mxCell>
        <mxCell id="NcBcRuEScLwqPQ7_SlR7-38" value="" style="endArrow=classic;html=1;curved=1;strokeWidth=4;entryX=1;entryY=0;entryDx=0;entryDy=0;fontStyle=1" edge="1" parent="1" target="NcBcRuEScLwqPQ7_SlR7-1">
          <mxGeometry width="50" height="50" relative="1" as="geometry">
            <mxPoint x="860" y="-50" as="sourcePoint" />
            <mxPoint x="620" y="10" as="targetPoint" />
            <Array as="points">
              <mxPoint x="860" y="-40" />
            </Array>
          </mxGeometry>
        </mxCell>
      </root>
    </mxGraphModel>
  </diagram>
</mxfile>
